<svg width="38" height="38" viewBox="0 0 38 38" fill="none" xmlns="http://www.w3.org/2000/svg">
<g filter="url(#filter0_d_391_55)">
<path d="M11.18 19.3605C6.6623 19.3605 3 15.6982 3 11.1805C3 6.66284 6.6623 3.00054 11.18 3.00054C15.6976 3.00054 19.3599 6.66284 19.3599 11.1805C19.3599 15.6982 15.6976 19.3605 11.18 19.3605Z" fill="#AEB0B4"/>
<path d="M11.1799 19.3605C15.6976 19.3605 19.3599 23.0228 19.3599 27.5404L19.3599 35.7204L2.99993 35.7204L2.99993 27.5404C2.99993 23.0228 6.66223 19.3605 11.1799 19.3605Z" fill="#AEB0B4"/>
<path d="M35.7197 11.1805C35.7197 15.6982 32.0574 19.3605 27.5398 19.3605L19.3598 19.3605L19.3598 11.1805C19.3598 6.66284 23.0221 3.00054 27.5398 3.00054C32.0574 3.00054 35.7197 6.66284 35.7197 11.1805Z" fill="#797476"/>
</g>
<path d="M27.518 9.17575C28.0702 9.17575 28.5999 9.3892 28.9904 9.76914C29.3809 10.1491 29.6003 10.6644 29.6003 11.2017C29.6003 11.739 29.3809 12.2543 28.9904 12.6343C28.5999 13.0142 28.0702 13.2276 27.518 13.2276C26.9657 13.2276 26.4361 13.0142 26.0456 12.6343C25.6551 12.2543 25.4357 11.739 25.4357 11.2017C25.4357 10.6644 25.6551 10.1491 26.0456 9.76914C26.4361 9.3892 26.9657 9.17575 27.518 9.17575ZM27.518 10.1887C27.2418 10.1887 26.977 10.2954 26.7818 10.4854C26.5865 10.6754 26.4768 10.933 26.4768 11.2017C26.4768 11.4704 26.5865 11.728 26.7818 11.918C26.977 12.1079 27.2418 12.2147 27.518 12.2147C27.7941 12.2147 28.0589 12.1079 28.2542 11.918C28.4494 11.728 28.5591 11.4704 28.5591 11.2017C28.5591 10.933 28.4494 10.6754 28.2542 10.4854C28.0589 10.2954 27.7941 10.1887 27.518 10.1887ZM26.4768 16.2666C26.3467 16.2666 26.2374 16.1754 26.2165 16.0538L26.0239 14.7116C25.696 14.585 25.4149 14.4128 25.1442 14.2102L23.8479 14.7218C23.7334 14.7623 23.5928 14.7218 23.5304 14.6103L22.4892 12.8579C22.4215 12.7465 22.4528 12.6097 22.5517 12.5338L23.6501 11.693L23.6137 11.2017L23.6501 10.6952L22.5517 9.86964C22.4528 9.79367 22.4215 9.65692 22.4892 9.54549L23.5304 7.79305C23.5928 7.68162 23.7334 7.63604 23.8479 7.68162L25.1442 8.18811C25.4149 7.99058 25.696 7.81837 26.0239 7.69175L26.2165 6.34956C26.2374 6.22801 26.3467 6.13684 26.4768 6.13684H28.5591C28.6893 6.13684 28.7986 6.22801 28.8194 6.34956L29.012 7.69175C29.34 7.81837 29.6211 7.99058 29.8918 8.18811L31.188 7.68162C31.3026 7.63604 31.4431 7.68162 31.5056 7.79305L32.5467 9.54549C32.6144 9.65692 32.5832 9.79367 32.4843 9.86964L31.3859 10.6952L31.4223 11.2017L31.3859 11.7082L32.4843 12.5338C32.5832 12.6097 32.6144 12.7465 32.5467 12.8579L31.5056 14.6103C31.4431 14.7218 31.3026 14.7674 31.188 14.7218L29.8918 14.2153C29.6211 14.4128 29.34 14.585 29.012 14.7116L28.8194 16.0538C28.7986 16.1754 28.6893 16.2666 28.5591 16.2666H26.4768ZM27.1275 7.14981L26.9349 8.47174C26.3102 8.59836 25.7584 8.92251 25.3576 9.37328L24.103 8.84654L23.7126 9.50497L24.811 10.29C24.6028 10.8826 24.6028 11.5258 24.811 12.1134L23.7074 12.9035L24.0978 13.5619L25.3628 13.0352C25.7636 13.4809 26.3102 13.805 26.9297 13.9266L27.1223 15.2536H27.9136L28.1062 13.9317C28.7257 13.805 29.2723 13.4809 29.6732 13.0352L30.9382 13.5619L31.3286 12.9035L30.225 12.1184C30.4332 11.5258 30.4332 10.8826 30.225 10.29L31.3234 9.50497L30.933 8.84654L29.6784 9.37328C29.2775 8.92251 28.7257 8.59836 28.101 8.4768L27.9084 7.14981H27.1275Z" fill="white" fill-opacity="0.2"/>
<g filter="url(#filter1_d_391_55)">
<path d="M19.3604 19.3605H35.7203V35.7204H19.3604V19.3605Z" fill="#D3D3D3"/>
</g>
<path d="M24.7646 32.7628H22.5489L25.9249 22.9835H28.5894L31.9605 32.7628H29.7449L27.2953 25.2183H27.2189L24.7646 32.7628ZM24.6261 28.9189H29.8595V30.5329H24.6261V28.9189Z" fill="#474747"/>
<defs>
<filter id="filter0_d_391_55" x="0.534805" y="0.535293" width="37.2019" height="37.2021" filterUnits="userSpaceOnUse" color-interpolation-filters="sRGB">
<feFlood flood-opacity="0" result="BackgroundImageFix"/>
<feColorMatrix in="SourceAlpha" type="matrix" values="0 0 0 0 0 0 0 0 0 0 0 0 0 0 0 0 0 0 127 0" result="hardAlpha"/>
<feOffset dx="-0.224109" dy="-0.224109"/>
<feGaussianBlur stdDeviation="1.12054"/>
<feComposite in2="hardAlpha" operator="out"/>
<feColorMatrix type="matrix" values="0 0 0 0 0 0 0 0 0 0 0 0 0 0 0 0 0 0 0.25 0"/>
<feBlend mode="normal" in2="BackgroundImageFix" result="effect1_dropShadow_391_55"/>
<feBlend mode="normal" in="SourceGraphic" in2="effect1_dropShadow_391_55" result="shape"/>
</filter>
<filter id="filter1_d_391_55" x="16.8952" y="16.8953" width="20.842" height="20.8422" filterUnits="userSpaceOnUse" color-interpolation-filters="sRGB">
<feFlood flood-opacity="0" result="BackgroundImageFix"/>
<feColorMatrix in="SourceAlpha" type="matrix" values="0 0 0 0 0 0 0 0 0 0 0 0 0 0 0 0 0 0 127 0" result="hardAlpha"/>
<feOffset dx="-0.224109" dy="-0.224109"/>
<feGaussianBlur stdDeviation="1.12054"/>
<feComposite in2="hardAlpha" operator="out"/>
<feColorMatrix type="matrix" values="0 0 0 0 0 0 0 0 0 0 0 0 0 0 0 0 0 0 0.25 0"/>
<feBlend mode="normal" in2="BackgroundImageFix" result="effect1_dropShadow_391_55"/>
<feBlend mode="normal" in="SourceGraphic" in2="effect1_dropShadow_391_55" result="shape"/>
</filter>
</defs>
</svg>
