<svg width="33" height="33" viewBox="0 0 33 33" fill="none" xmlns="http://www.w3.org/2000/svg">
<path d="M16.36 0V16.36H0C3.94949e-07 7.32463 7.32463 -3.94949e-07 16.36 0Z" fill="#AEB0B4"/>
<path d="M16.36 16.36L16.3595 32.7207C7.32414 32.7207 -3.94949e-07 25.3954 0 16.36H16.36Z" fill="#AEB0B4"/>
<path d="M32.7197 16.3607L16.36 16.36V0C25.3954 7.89898e-07 32.7197 7.32535 32.7197 16.3607Z" fill="#AEB0B4"/>
<path d="M24.5174 24.5176L16.3374 24.5176C11.8197 24.5176 8.15736 20.8553 8.15736 16.3376C8.15736 11.8199 11.8197 8.15759 16.3374 8.15759C20.855 8.15759 24.5174 11.8199 24.5174 16.3376L24.5174 24.5176Z" fill="#797476"/>
<path d="M12.4703 16.7789H11.564V15.8947H12.4703C12.6692 14.0511 14.1415 12.5789 15.985 12.38V11.4737H16.8693V12.38C18.7128 12.5789 20.1851 14.0511 20.384 15.8947H21.2903V16.7789H20.384C20.1851 18.6225 18.7128 20.0947 16.8693 20.2937V21.2H15.985V20.2937C14.1415 20.0947 12.6692 18.6225 12.4703 16.7789ZM16.4272 13.2421C15.6064 13.2421 14.8192 13.5681 14.2388 14.1485C13.6585 14.7289 13.3324 15.5161 13.3324 16.3368C13.3324 17.1576 13.6585 17.9448 14.2388 18.5252C14.8192 19.1055 15.6064 19.4316 16.4272 19.4316C17.2479 19.4316 18.0351 19.1055 18.6155 18.5252C19.1959 17.9448 19.5219 17.1576 19.5219 16.3368C19.5219 15.5161 19.1959 14.7289 18.6155 14.1485C18.0351 13.5681 17.2479 13.2421 16.4272 13.2421Z" fill="#DFDFDF" fill-opacity="0.2"/>
<path d="M16.36 16.36L32.7197 16.3607L32.7195 32.7207H16.3595L16.36 16.36Z" fill="#D3D3D3"/>
<path d="M21.4421 30.0773V20.3222H27.9011V22.0227H23.5046V24.3471H27.4724V26.0476H23.5046V30.0773H21.4421Z" fill="#474747"/>
</svg>
