<svg width="38" height="38" viewBox="0 0 38 38" fill="none" xmlns="http://www.w3.org/2000/svg">
<g filter="url(#filter0_d_391_63)">
<path d="M3.00049 19.3596L3.00049 3.00002L19.3601 3.00002L19.3601 19.3596L3.00049 19.3596Z" fill="#AEB0B4"/>
<rect x="19.3594" y="19.3596" width="16.3596" height="16.3596" rx="8.1798" transform="rotate(90 19.3594 19.3596)" fill="#AEB0B4"/>
<rect x="35.7188" y="19.3596" width="16.3596" height="16.3596" transform="rotate(-180 35.7188 19.3596)" fill="#797476"/>
</g>
<g filter="url(#filter1_d_391_63)">
<path d="M19.3604 19.3604H35.7199V35.7199H19.3604V19.3604Z" fill="#D3D3D3"/>
</g>
<path d="M31.9949 26.4512H29.9034C29.8652 26.1806 29.7873 25.9403 29.6695 25.7302C29.5517 25.5169 29.4005 25.3354 29.2159 25.1858C29.0312 25.0362 28.8179 24.9216 28.576 24.842C28.3373 24.7624 28.0778 24.7227 27.7977 24.7227C27.2915 24.7227 26.8507 24.8484 26.475 25.0999C26.0994 25.3482 25.8081 25.7111 25.6012 26.1886C25.3943 26.6629 25.2908 27.2391 25.2908 27.9171C25.2908 28.6142 25.3943 29.2 25.6012 29.6743C25.8113 30.1486 26.1042 30.5067 26.4798 30.7486C26.8554 30.9906 27.29 31.1115 27.7834 31.1115C28.0603 31.1115 28.3166 31.0749 28.5521 31.0017C28.7909 30.9285 29.0026 30.8219 29.1872 30.6818C29.3718 30.5385 29.5246 30.3651 29.6456 30.1613C29.7697 29.9576 29.8557 29.7252 29.9034 29.4642L31.9949 29.4737C31.9408 29.9226 31.8055 30.3555 31.589 30.7725C31.3757 31.1863 31.0876 31.5572 30.7247 31.8851C30.365 32.2098 29.9353 32.4676 29.4355 32.6586C28.9389 32.8464 28.3771 32.9403 27.7499 32.9403C26.8777 32.9403 26.0978 32.743 25.4102 32.3482C24.7258 31.9535 24.1846 31.3821 23.7867 30.634C23.392 29.886 23.1946 28.9803 23.1946 27.9171C23.1946 26.8507 23.3952 25.9435 23.7963 25.1954C24.1974 24.4473 24.7417 23.8775 25.4293 23.4859C26.1169 23.0912 26.8905 22.8939 27.7499 22.8939C28.3166 22.8939 28.8418 22.9734 29.3257 23.1326C29.8127 23.2918 30.2441 23.5241 30.6197 23.8297C30.9953 24.1322 31.3009 24.503 31.5365 24.9423C31.7752 25.3816 31.928 25.8846 31.9949 26.4512Z" fill="#474747"/>
<path opacity="0.2" d="M29.0117 6.22091L28.8255 13.0682H27.0779L26.8869 6.22091H29.0117ZM27.9517 16.1241C27.6365 16.1241 27.366 16.0127 27.1399 15.7899C26.9139 15.5639 26.8025 15.2933 26.8057 14.9782C26.8025 14.6662 26.9139 14.3988 27.1399 14.176C27.366 13.9531 27.6365 13.8417 27.9517 13.8417C28.2541 13.8417 28.5199 13.9531 28.7491 14.176C28.9783 14.3988 29.0945 14.6662 29.0977 14.9782C29.0945 15.1883 29.0388 15.3808 28.9305 15.5559C28.8255 15.7278 28.687 15.8663 28.5151 15.9714C28.3432 16.0732 28.1554 16.1241 27.9517 16.1241Z" fill="white"/>
<defs>
<filter id="filter0_d_391_63" x="0.534855" y="0.534855" width="37.2008" height="37.2013" filterUnits="userSpaceOnUse" color-interpolation-filters="sRGB">
<feFlood flood-opacity="0" result="BackgroundImageFix"/>
<feColorMatrix in="SourceAlpha" type="matrix" values="0 0 0 0 0 0 0 0 0 0 0 0 0 0 0 0 0 0 127 0" result="hardAlpha"/>
<feOffset dx="-0.224104" dy="-0.224104"/>
<feGaussianBlur stdDeviation="1.12052"/>
<feComposite in2="hardAlpha" operator="out"/>
<feColorMatrix type="matrix" values="0 0 0 0 0 0 0 0 0 0 0 0 0 0 0 0 0 0 0.25 0"/>
<feBlend mode="normal" in2="BackgroundImageFix" result="effect1_dropShadow_391_63"/>
<feBlend mode="normal" in="SourceGraphic" in2="effect1_dropShadow_391_63" result="shape"/>
</filter>
<filter id="filter1_d_391_63" x="16.8952" y="16.8952" width="20.8415" height="20.8417" filterUnits="userSpaceOnUse" color-interpolation-filters="sRGB">
<feFlood flood-opacity="0" result="BackgroundImageFix"/>
<feColorMatrix in="SourceAlpha" type="matrix" values="0 0 0 0 0 0 0 0 0 0 0 0 0 0 0 0 0 0 127 0" result="hardAlpha"/>
<feOffset dx="-0.224104" dy="-0.224104"/>
<feGaussianBlur stdDeviation="1.12052"/>
<feComposite in2="hardAlpha" operator="out"/>
<feColorMatrix type="matrix" values="0 0 0 0 0 0 0 0 0 0 0 0 0 0 0 0 0 0 0.25 0"/>
<feBlend mode="normal" in2="BackgroundImageFix" result="effect1_dropShadow_391_63"/>
<feBlend mode="normal" in="SourceGraphic" in2="effect1_dropShadow_391_63" result="shape"/>
</filter>
</defs>
</svg>
