<svg width="38" height="38" viewBox="0 0 38 38" fill="none" xmlns="http://www.w3.org/2000/svg">
<g filter="url(#filter0_d_391_47)">
<path d="M3 19.3605C3 10.3251 10.3246 3.00054 19.3599 3.00054L19.3599 19.3605L3 19.3605Z" fill="#AEB0B4"/>
<path d="M19.3599 19.3605L19.3599 35.7204L2.99993 35.7204L2.99993 19.3605L19.3599 19.3605Z" fill="#AEB0B4"/>
<path d="M35.7197 19.3605L19.3598 19.3605L19.3598 3.00054L35.7197 3.00054L35.7197 19.3605Z" fill="#797476"/>
</g>
<g filter="url(#filter1_d_391_47)">
<path d="M19.3604 19.3605H35.7203V35.7204H19.3604V19.3605Z" fill="#D3D3D3"/>
</g>
<path d="M28.5528 22.9835V32.7628H26.4852V22.9835H28.5528Z" fill="#474747"/>
<path opacity="0.15" d="M10.962 31.6986V11.3251H12.2672V31.6986H10.962ZM14.4239 18.0499C14.3602 17.408 14.087 16.9092 13.6042 16.5538C13.1214 16.1983 12.4661 16.0206 11.6385 16.0206C11.0761 16.0206 10.6012 16.1001 10.2139 16.2593C9.82661 16.4132 9.52949 16.628 9.32257 16.9039C9.12096 17.1798 9.02015 17.4929 9.02015 17.843C9.00954 18.1348 9.07056 18.3895 9.2032 18.607C9.34114 18.8246 9.52949 19.0129 9.76824 19.1721C10.007 19.3259 10.2829 19.4612 10.5959 19.578C10.9089 19.6894 11.2432 19.7849 11.5987 19.8645L13.063 20.2146C13.774 20.3738 14.4266 20.586 15.0208 20.8513C15.615 21.1166 16.1297 21.4429 16.5647 21.8302C16.9998 22.2175 17.3367 22.6738 17.5754 23.199C17.8195 23.7243 17.9442 24.3265 17.9495 25.0056C17.9442 26.003 17.6895 26.8679 17.1855 27.6C16.6867 28.3269 15.9652 28.8919 15.0208 29.2952C14.0817 29.6931 12.949 29.892 11.6226 29.892C10.3068 29.892 9.16075 29.6904 8.18452 29.2872C7.2136 28.884 6.45489 28.2871 5.90842 27.4966C5.36725 26.7007 5.0834 25.7165 5.05687 24.544H8.39144C8.42858 25.0905 8.58509 25.5468 8.86099 25.9128C9.14218 26.2736 9.51623 26.5469 9.98312 26.7326C10.4553 26.913 10.9885 27.0031 11.5828 27.0031C12.1664 27.0031 12.6731 26.9183 13.1028 26.7485C13.5379 26.5787 13.8748 26.3426 14.1135 26.0402C14.3523 25.7378 14.4717 25.3902 14.4717 24.9976C14.4717 24.6315 14.3629 24.3238 14.1454 24.0745C13.9331 23.8251 13.6201 23.6129 13.2063 23.4378C12.7977 23.2627 12.2964 23.1035 11.7021 22.9603L9.92741 22.5146C8.55326 22.1804 7.46826 21.6578 6.67242 20.9468C5.87658 20.2359 5.48132 19.2782 5.48662 18.0738C5.48132 17.087 5.74394 16.2248 6.2745 15.4873C6.81037 14.7499 7.5452 14.1742 8.47898 13.7604C9.41277 13.3465 10.4739 13.1396 11.6623 13.1396C12.872 13.1396 13.9278 13.3465 14.8298 13.7604C15.737 14.1742 16.4427 14.7499 16.9467 15.4873C17.4508 16.2248 17.7107 17.079 17.7266 18.0499H14.4239Z" fill="white"/>
<defs>
<filter id="filter0_d_391_47" x="0.534805" y="0.535293" width="37.2019" height="37.2021" filterUnits="userSpaceOnUse" color-interpolation-filters="sRGB">
<feFlood flood-opacity="0" result="BackgroundImageFix"/>
<feColorMatrix in="SourceAlpha" type="matrix" values="0 0 0 0 0 0 0 0 0 0 0 0 0 0 0 0 0 0 127 0" result="hardAlpha"/>
<feOffset dx="-0.224109" dy="-0.224109"/>
<feGaussianBlur stdDeviation="1.12054"/>
<feComposite in2="hardAlpha" operator="out"/>
<feColorMatrix type="matrix" values="0 0 0 0 0 0 0 0 0 0 0 0 0 0 0 0 0 0 0.25 0"/>
<feBlend mode="normal" in2="BackgroundImageFix" result="effect1_dropShadow_391_47"/>
<feBlend mode="normal" in="SourceGraphic" in2="effect1_dropShadow_391_47" result="shape"/>
</filter>
<filter id="filter1_d_391_47" x="16.8952" y="16.8953" width="20.842" height="20.8422" filterUnits="userSpaceOnUse" color-interpolation-filters="sRGB">
<feFlood flood-opacity="0" result="BackgroundImageFix"/>
<feColorMatrix in="SourceAlpha" type="matrix" values="0 0 0 0 0 0 0 0 0 0 0 0 0 0 0 0 0 0 127 0" result="hardAlpha"/>
<feOffset dx="-0.224109" dy="-0.224109"/>
<feGaussianBlur stdDeviation="1.12054"/>
<feComposite in2="hardAlpha" operator="out"/>
<feColorMatrix type="matrix" values="0 0 0 0 0 0 0 0 0 0 0 0 0 0 0 0 0 0 0.25 0"/>
<feBlend mode="normal" in2="BackgroundImageFix" result="effect1_dropShadow_391_47"/>
<feBlend mode="normal" in="SourceGraphic" in2="effect1_dropShadow_391_47" result="shape"/>
</filter>
</defs>
</svg>
