<svg width="38" height="38" viewBox="0 0 38 38" fill="none" xmlns="http://www.w3.org/2000/svg">
  <g filter="url(#filter0_d)">
    <path d="M3 19.3599C3 10.3246 10.3246 3 19.3599 3V19.3599H3Z" fill="#AEB0B4" />
    <path d="M3 19.3601H19.3599V35.72C10.3246 35.72 3 28.3954 3 19.3601Z" fill="#AEB0B4" />
    <path d="M19.3599 3C28.3952 3 35.7198 10.3246 35.7198 19.3599H19.3599V3Z" fill="#606060" />
  </g>
  <path opacity="0.15" d="M12.4044 24.561V23.8734C12.4044 23.3514 12.5148 22.8717 12.7355 22.4346C12.9604 21.9931 13.2852 21.6408 13.7096 21.3777C14.1383 21.1103 14.6604 20.9766 15.2758 20.9766C15.8998 20.9766 16.4239 21.1082 16.8484 21.3713C17.2771 21.6345 17.5997 21.9868 17.8161 22.4282C18.0368 22.8654 18.1472 23.3471 18.1472 23.8734V24.561C18.1472 25.0831 18.0368 25.5649 17.8161 26.0063C17.5954 26.4435 17.2707 26.7936 16.842 27.0568C16.4133 27.3242 15.8913 27.4579 15.2758 27.4579C14.6519 27.4579 14.1277 27.3242 13.7032 27.0568C13.2788 26.7936 12.9562 26.4435 12.7355 26.0063C12.5148 25.5649 12.4044 25.0831 12.4044 24.561ZM14.2571 23.8734V24.561C14.2571 24.8624 14.3293 25.1468 14.4736 25.4142C14.6222 25.6816 14.8896 25.8153 15.2758 25.8153C15.6621 25.8153 15.9252 25.6837 16.0653 25.4205C16.2096 25.1574 16.2818 24.8709 16.2818 24.561V23.8734C16.2818 23.5636 16.2138 23.275 16.078 23.0076C15.9422 22.7402 15.6748 22.6065 15.2758 22.6065C14.8938 22.6065 14.6285 22.7402 14.48 23.0076C14.3314 23.275 14.2571 23.5636 14.2571 23.8734Z" fill="#A0A0A0" />
  <g filter="url(#filter1_d)">
    <path d="M19.3599 19.3601H35.7198V35.72H19.3599V19.3601Z" fill="#808080" />
  </g>
  <path d="M24.1542 32.3601V22.5808H28.0124C28.7509 22.5808 29.3812 22.7129 29.9033 22.9771C30.4286 23.2382 30.8281 23.609 31.1018 24.0897C31.3788 24.5672 31.5173 25.1291 31.5173 25.7753C31.5173 26.4247 31.3772 26.9834 31.0971 27.4514C30.8169 27.9161 30.4111 28.2727 29.8794 28.521C29.351 28.7693 28.7111 28.8934 27.9599 28.8934H25.3766V27.2317H27.6256C28.0203 27.2317 28.3482 27.1776 28.6093 27.0694C28.8703 26.9611 29.0645 26.7988 29.1918 26.5823C29.3223 26.3658 29.3876 26.0968 29.3876 25.7753C29.3876 25.4506 29.3223 25.1769 29.1918 24.954C29.0645 24.7312 28.8687 24.5625 28.6045 24.4479C28.3435 24.3301 28.014 24.2712 27.6161 24.2712H26.2218V32.3601H24.1542ZM29.4354 27.9098L31.8658 32.3601H29.5834L27.2054 27.9098H29.4354Z" fill="#606060" />
</svg>